Poster: 
http://imgh.us/Abraham-Lincoln-Vampire-Hunter6_1.jpg

Info:

Video
ID : 0
Format : MPEG-4 Visual
Format profile : Advanced Simple@L5
Format settings, BVOP : 2
Format settings, QPel : No
Format settings, GMC : No warppoints
Format settings, Matrix : Default (H.263)
Muxing mode : Packed bitstream
Codec ID : XVID
Codec ID/Hint : XviD
Duration : 1h 37mn
Bit rate : 1 405 Kbps
Width : 608 pixels
Height : 304 pixels
Display aspect ratio : 2.000
Frame rate : 25.000 fps
Color space : YUV
Chroma subsampling : 4:2:0
Bit depth : 8 bits
Scan type : Progressive
Compression mode : Lossy
Bits/(Pixel*Frame) : 0.304
Stream size : 979 MiB (91%)
Writing library : XviD 64

Audio
ID : 1
Format : MPEG Audio
Format version : Version 1
Format profile : Layer 3
Mode : Joint stereo
Mode extension : MS Stereo
Codec ID : 55
Codec ID/Hint : MP3
Duration : 1h 37mn
Bit rate mode : Constant
Bit rate : 128 Kbps
Channel(s) : 2 channels
Sampling rate : 44.1 KHz
Compression mode : Lossy
Stream size : 89.2 MiB (8%)
Alignment : Split accross interleaves
Interleave, duration : 40 ms (1.00 video frame)
Interleave, preload duration : 500 ms

**********Note******************
Source Used
FUTiLE ...........Thanks 

So so cam not great but better than previous 

Notes will edit description when can be bothered im too fookin tired lmao 



SCREENS: 
http://imgh.us/vlcsnap2012071809h10m20.png 
http://imgh.us/vlcsnap2012071809h10m10.png 
http://imgh.us/Abraham_Lincoln_Vampire_Hunter_2012_CAM_NEW_SOURCE_XViD_UNiQUE-010.jpg

